<svg version="1.1" id="Layer_1" xmlns="http://www.w3.org/2000/svg" x="0" y="0" viewBox="0 0 80 80" xml:space="preserve"><style>.st0{fill:#f4f4f4}</style><g id="layer1" transform="translate(-447.043 -105.59)"><path id="Blue_1_" class="st0" d="M108.13 118.45c-1.55 0-2.8 1.25-2.8 2.8v45.19c0 1.55 1.25 2.8 2.8 2.8h24.33v-19.66h-6.62v-7.67h6.62v-5.65c0-6.56 4.01-10.13 9.86-10.13 2.8 0 5.21.21 5.91.3v6.85h-4.06c-3.18 0-3.8 1.51-3.8 3.73v4.9h7.59l-.99 7.67h-6.6v19.66h12.95c1.55 0 2.8-1.25 2.8-2.8v-45.19c0-1.55-1.25-2.8-2.8-2.8h-45.19z"/><path id="path22" class="st0" d="M305.12 132.86c-1.87.83-3.88 1.39-5.98 1.64 2.15-1.29 3.8-3.33 4.58-5.76a20.955 20.955 0 01-6.62 2.53c-1.9-2.02-4.61-3.29-7.6-3.29-5.76 0-10.42 4.66-10.42 10.42 0 .82.09 1.61.27 2.37-8.66-.43-16.34-4.58-21.48-10.89-.9 1.54-1.41 3.33-1.41 5.24 0 3.62 1.84 6.8 4.64 8.67-1.71-.05-3.31-.52-4.72-1.3v.13c0 5.05 3.59 9.26 8.36 10.22-.87.24-1.79.36-2.74.36-.67 0-1.32-.06-1.96-.19 1.33 4.14 5.17 7.15 9.73 7.24-3.57 2.8-8.06 4.46-12.94 4.46-.84 0-1.67-.05-2.49-.15a29.46 29.46 0 0015.97 4.68c19.17 0 29.64-15.88 29.64-29.65 0-.45-.01-.9-.03-1.35 2.03-1.46 3.8-3.29 5.2-5.38"/><path id="path4180" class="st0" d="M211.45 118.45c-6.89 0-11.61 4.21-11.61 11.93v6.66h-7.8v9.03h7.8v23.16h9.32v-23.16h7.78l1.17-9.03h-8.95v-5.77c0-2.61.73-4.4 4.48-4.4h4.78v-8.07c-.83-.1-3.67-.35-6.97-.35z"/><path id="rect3687" class="st0" d="M355.55 118.07c-8.25 0-14.96 6.71-14.96 14.96v21.64c0 8.25 6.71 14.96 14.96 14.96h21.77c8.25 0 14.96-6.71 14.96-14.96v-21.64c0-8.25-6.71-14.96-14.96-14.96h-21.77zm0 4.43h21.77c5.87 0 10.53 4.66 10.53 10.53v21.64c0 5.87-4.66 10.53-10.53 10.53h-21.77c-5.87 0-10.53-4.66-10.53-10.53v-21.64c0-5.87 4.66-10.53 10.53-10.53zm24.75 4.43c-1.71 0-3.1 1.39-3.1 3.1 0 1.71 1.39 3.1 3.1 3.1s3.1-1.39 3.1-3.1c0-1.71-1.38-3.1-3.1-3.1zm-13.87 3.64c-7.31 0-13.28 5.97-13.28 13.28s5.97 13.28 13.28 13.28 13.28-5.97 13.28-13.28-5.97-13.28-13.28-13.28zm0 4.44c4.91 0 8.85 3.93 8.85 8.84s-3.94 8.84-8.85 8.84-8.84-3.93-8.84-8.84 3.93-8.84 8.84-8.84z"/></g><path class="st0" d="M208.07 59.95c.16-.48.3-.91.44-1.33 1.32-3.92 2.64-7.83 3.94-11.75a.45.45 0 00-.04-.36 24.97 24.97 0 01-3.16-8.81c-.28-1.79-.39-3.59-.26-5.4.33-4.76 1.85-9.11 4.66-12.99 2.91-4.02 6.71-6.92 11.34-8.7 2.02-.77 4.11-1.25 6.26-1.47 1.39-.14 2.78-.19 4.17-.08 3.66.26 7.11 1.23 10.32 3.02 4.89 2.72 8.48 6.65 10.76 11.75 1 2.24 1.64 4.59 1.92 7.04.17 1.52.24 3.04.14 4.57-.26 3.92-1.36 7.58-3.36 10.97-2.05 3.49-4.8 6.32-8.23 8.49a24.588 24.588 0 01-8.33 3.32c-1.67.34-3.35.49-5.04.47-3.63-.03-7.1-.8-10.38-2.36-.41-.19-.81-.39-1.2-.61a.588.588 0 00-.5-.05c-2.22.72-4.44 1.43-6.67 2.14l-6.57 2.1-.21.04zm6.33-6.25c.18-.05.29-.08.39-.11 2.43-.78 4.87-1.56 7.3-2.34.21-.07.37-.05.57.07 3.11 1.98 6.51 3.05 10.19 3.24 1.69.09 3.37-.04 5.02-.4 6.43-1.4 11.21-5.01 14.31-10.8 1.81-3.38 2.53-7.02 2.29-10.85a20.603 20.603 0 00-6.21-13.5c-3.56-3.45-7.83-5.4-12.77-5.85-2.18-.2-4.35-.03-6.48.5-5.32 1.32-9.52 4.26-12.54 8.83-2.88 4.35-3.89 9.16-3.19 14.31.45 3.29 1.67 6.29 3.6 8.99.09.13.11.24.06.39-.64 1.87-1.27 3.74-1.9 5.61-.21.61-.41 1.22-.64 1.91z"/><path class="st0" d="M246.68 40.67c-.07 1.07-.26 1.94-.65 2.77-.08.17-.18.33-.3.47-1.01 1.13-2.27 1.83-3.73 2.17-1.41.33-2.76.16-4.09-.37-1.35-.54-2.72-1.04-4.04-1.64-2.14-.96-3.97-2.39-5.62-4.04-1.6-1.6-2.98-3.37-4.19-5.27-.76-1.18-1.51-2.36-2-3.69-.39-1.06-.68-2.14-.66-3.27.03-2.25.93-4.11 2.64-5.57.49-.41 1.06-.57 1.7-.5.39.04.79.07 1.19.07.39 0 .7.15.87.5.2.41.38.83.54 1.26.53 1.41 1.05 2.82 1.59 4.23.14.36.11.69-.07 1.04-.41.81-1.05 1.43-1.67 2.07-.51.53-.57.8-.22 1.43 1.55 2.81 3.62 5.14 6.42 6.77.68.39 1.39.73 2.09 1.08.5.24.84.18 1.21-.23.72-.8 1.42-1.61 2.12-2.43.32-.37.56-.49 1.02-.34.37.12.72.29 1.06.47 1.41.74 2.82 1.5 4.23 2.24.37.2.62.47.56.78zM59.81 55.18c-2.9-2.56-5.78-5.12-8.68-7.67-.66-.58-1.26-1.23-2-1.7-.32-.2-.3-.35-.15-.63 1.57-2.89 2.16-5.98 1.83-9.25-.77-7.52-7-13.55-14.56-14.07-9.21-.64-16.96 6.56-17 15.87.02.8.08 1.69.23 2.57 1.81 10.81 14.01 16.56 23.47 11.07.64-.37.64-.37 1.08.18.08.1.17.21.27.29 3.54 3.13 7.07 6.27 10.62 9.38 1.3 1.14 3.15 1.01 4.34-.23.28-.29.54-.59.81-.89 1.48-1.63 1.37-3.48-.26-4.92zm-24.67-7.84c-5.33.03-9.74-4.3-9.76-9.6a9.712 9.712 0 019.7-9.8c5.32-.03 9.68 4.34 9.69 9.71.01 5.3-4.32 9.66-9.63 9.69z"/></svg>