<svg version="1.1" id="Layer_1" xmlns="http://www.w3.org/2000/svg" x="0" y="0" viewBox="0 0 80 80" xml:space="preserve"><style>.st0{fill:#f4f4f4}</style><g id="layer1" transform="translate(-447.043 -105.59)"><path id="Blue_1_" class="st0" d="M231.13 118.45c-1.55 0-2.8 1.25-2.8 2.8v45.19c0 1.55 1.25 2.8 2.8 2.8h24.33v-19.66h-6.62v-7.67h6.62v-5.65c0-6.56 4.01-10.13 9.86-10.13 2.8 0 5.21.21 5.91.3v6.85h-4.06c-3.18 0-3.8 1.51-3.8 3.73v4.9h7.59l-.99 7.67h-6.6v19.66h12.95c1.55 0 2.8-1.25 2.8-2.8v-45.19c0-1.55-1.25-2.8-2.8-2.8h-45.19z"/><path id="path22" class="st0" d="M428.12 132.86c-1.87.83-3.88 1.39-5.98 1.64 2.15-1.29 3.8-3.33 4.58-5.76a20.955 20.955 0 01-6.62 2.53c-1.9-2.02-4.61-3.29-7.6-3.29-5.76 0-10.42 4.66-10.42 10.42 0 .82.09 1.61.27 2.37-8.66-.43-16.34-4.58-21.48-10.89-.9 1.54-1.41 3.33-1.41 5.24 0 3.62 1.84 6.8 4.64 8.67-1.71-.05-3.31-.52-4.72-1.3v.13c0 5.05 3.59 9.26 8.36 10.22-.87.24-1.79.36-2.74.36-.67 0-1.32-.06-1.96-.19 1.33 4.14 5.17 7.15 9.73 7.24-3.57 2.8-8.06 4.46-12.94 4.46-.84 0-1.67-.05-2.49-.15a29.46 29.46 0 0015.97 4.68c19.17 0 29.64-15.88 29.64-29.65 0-.45-.01-.9-.03-1.35 2.03-1.46 3.8-3.29 5.2-5.38"/><path id="path4180" class="st0" d="M334.45 118.45c-6.89 0-11.61 4.21-11.61 11.93v6.66h-7.8v9.03h7.8v23.16h9.32v-23.16h7.78l1.17-9.03h-8.95v-5.77c0-2.61.73-4.4 4.48-4.4h4.78v-8.07c-.83-.1-3.67-.35-6.97-.35z"/><path id="rect3687" class="st0" d="M478.55 118.07c-8.25 0-14.96 6.71-14.96 14.96v21.64c0 8.25 6.71 14.96 14.96 14.96h21.77c8.25 0 14.96-6.71 14.96-14.96v-21.64c0-8.25-6.71-14.96-14.96-14.96h-21.77zm0 4.43h21.77c5.87 0 10.53 4.66 10.53 10.53v21.64c0 5.87-4.66 10.53-10.53 10.53h-21.77c-5.87 0-10.53-4.66-10.53-10.53v-21.64c0-5.87 4.66-10.53 10.53-10.53zm24.75 4.43c-1.71 0-3.1 1.39-3.1 3.1 0 1.71 1.39 3.1 3.1 3.1s3.1-1.39 3.1-3.1c0-1.71-1.38-3.1-3.1-3.1zm-13.87 3.64c-7.31 0-13.28 5.97-13.28 13.28s5.97 13.28 13.28 13.28 13.28-5.97 13.28-13.28-5.97-13.28-13.28-13.28zm0 4.44c4.91 0 8.85 3.93 8.85 8.84s-3.94 8.84-8.85 8.84-8.84-3.93-8.84-8.84 3.93-8.84 8.84-8.84z"/></g></svg>