<svg version="1.1" id="Layer_1" xmlns="http://www.w3.org/2000/svg" x="0" y="0" viewBox="0 0 80 80" xml:space="preserve"><style>.st0{fill:#f4f4f4}</style><g id="layer1" transform="translate(-447.043 -105.59)"><path id="path22-2" class="st0" d="M987.86 196.59c-8.88 0-13.59 5.97-13.59 12.47 0 3.02 1.59 6.77 4.16 7.97.39.18.6.09.69-.28.07-.29.41-1.69.56-2.34.05-.21.04-.39-.13-.59-.85-1.03-1.53-2.92-1.53-4.69 0-4.54 3.43-8.94 9.28-8.94 5.06 0 8.59 3.45 8.59 8.38 0 5.57-2.81 9.44-6.47 9.44-2.02 0-3.52-1.67-3.03-3.72.58-2.44 1.69-5.11 1.69-6.88 0-1.58-.84-2.88-2.59-2.88-2.06 0-3.72 2.14-3.72 5 0 1.82.63 3.03.63 3.03s-2.07 8.64-2.44 10.25c-.64 2.72.09 7.11.16 7.5.03.21.28.3.41.13.2-.27 2.65-3.96 3.34-6.63l1.28-4.91c.67 1.28 2.63 2.38 4.72 2.38 6.21 0 10.69-5.72 10.69-12.81-.02-6.8-5.57-11.88-12.7-11.88zm109.87.06c-5.29 0-8.75 3.56-8.75 8.56 0 1.46.54 3.13 1.22 4.19-.28-.02-.58-.03-.88-.03-4.02 0-6.53 2.2-6.53 5.38 0 2.98 2.35 4.13 4.56 4.91 1.96.68 3.75 1 3.75 2.53 0 1.03-.99 1.66-2.94 1.66-2.31 0-3.59-1.09-3.91-1.5.22-.17.56-.6.56-1.28 0-.95-.69-1.72-1.94-1.72-1.06 0-1.93.84-2.16 1.97-1.69 1.38-3.54 2.28-6.16 2.28-2.58 0-3.94-1.33-3.94-4.19.61.18 2.21.41 3.25.41 4.37 0 7.34-1.99 7.34-5.97 0-2.14-1.88-4.38-5.59-4.38h-.03c-4.88 0-7.58 3.1-8.78 6.5-.33-.08-.69-.17-1.03-.25.27-.75.47-1.63.47-2.59 0-1.68-1.03-3.66-3.81-3.66-1.94 0-3.79 1.28-5.06 3.19.32-1.24.51-2.07.53-2.13.08-.33-.06-.69-.56-.69h-2.84c-.4 0-.69.13-.81.59-.08.31-1.04 4.16-2 7.91-.6 2.34-3.74 5.25-7.66 5.25-2.58 0-3.91-1.43-3.91-4.28.67.27 2.18.5 3.22.5 4.55 0 7.34-1.99 7.34-5.97 0-2.14-1.88-4.38-5.59-4.38-5.49 0-8.86 4.28-9.44 9.13-.24 2.01-1.94 4.78-3.78 4.78-.9 0-1.38-.57-1.38-1.53 0-.83.58-2.84 1.22-5.38.21-.84.52-2.13.88-3.56h3c.44 0 .71-.18.81-.59.14-.6.39-1.65.47-1.94.1-.37-.12-.66-.53-.66h-2.94s1.34-5.42 1.38-5.56c.13-.55-.33-.85-.81-.75 0 0-2.26.44-2.69.53-.42.08-.75.33-.91.94l-1.19 4.84h-2.38c-.45 0-.71.18-.81.59-.15.6-.4 1.65-.47 1.94-.1.37.12.66.53.66h2.31c-.02.07-.84 3.18-1.5 5.97-.31 1.34-1.35 4.47-3.06 4.47-1.02 0-1.44-.52-1.44-1.63 0-1.74 1.69-6.09 1.69-8.06 0-2.64-1.41-4.19-4.31-4.19-1.83 0-3.73 1.18-4.53 2.22 0 0 .26-.83.34-1.16.09-.35-.11-.69-.56-.69h-2.84c-.61 0-.76.33-.84.69-.04.14-1.08 4.14-2.06 8-.67 2.64-2.29 4.84-4.03 4.84-.9 0-1.31-.54-1.31-1.5 0-.83.55-2.87 1.19-5.41.77-3.08 1.46-5.61 1.53-5.91.09-.38-.08-.72-.56-.72h-2.88c-.52 0-.71.28-.81.66 0 0-.8 3.02-1.66 6.41-.62 2.46-1.28 4.98-1.28 6.16 0 2.1.94 3.69 3.53 3.69 2 0 3.57-1.02 4.78-2.31-.18.7-.3 1.14-.31 1.19-.1.4.03.75.5.75h2.94c.51 0 .71-.21.81-.66.1-.42 2.28-9 2.28-9 .58-2.31 1.99-3.84 4-3.84.95 0 1.79.65 1.69 1.88-.11 1.35-1.72 6.19-1.72 8.31 0 1.61.6 3.69 3.63 3.69 2.07 0 3.59-1.01 4.69-2.28.4 1.36 1.47 2.28 3.44 2.28 3.27 0 5.22-1.96 6.38-3.91.96 2.26 3.23 3.91 6.53 3.91 3.36 0 5.94-1.42 7.78-3.34-.33 1.3-.54 2.18-.56 2.25-.11.4.08.72.56.72h2.88c.39 0 .68-.21.78-.63.05-.2.47-1.8 1.06-4.09 1.13-4.39 2.93-8.97 5.66-8.97.96 0 1.38.56 1.38 1.41 0 .4-.12.72-.22.91-1.32-.26-2.38.4-2.38 1.81 0 .92.95 1.75 2.25 1.75 1 0 1.84-.24 2.5-.69.61.13 1.27.29 1.94.44-.1.66-.16 1.29-.16 1.91 0 3.53 2.65 6.53 7.16 6.53 3.54 0 5.81-1.2 7.94-2.97 1.01 1.65 3.54 3 6.88 3 4.57 0 7.16-2.39 7.16-5.53 0-2.84-2.31-3.88-4.72-4.75-1.96-.71-3.59-1.12-3.59-2.5 0-1.14.88-1.63 2.41-1.63.99 0 1.75.2 2.16.31.39.99 1.2 2.09 2.59 2.09 1.18 0 1.72-.95 1.72-1.81 0-2.45-4.09-2.69-4.09-7.94 0-3.26 1.86-5.97 5.69-5.97 2.66 0 4.38 1.69 4.38 4.41 0 2.24-1.34 6.25-1.34 6.25h-2.31c-.44 0-.71.18-.81.59-.15.6-.42 1.65-.5 1.94-.09.37.14.66.56.66h2.25s-2.34 8.59-2.34 10.16c0 2.1 1.19 3.69 3.78 3.69 3.67 0 5.97-2.38 6.97-5.84.07-.27-.07-.5-.34-.5h-1.41c-.28 0-.43.17-.5.44-.32 1.23-1.11 2.53-2.66 2.53-.9 0-1.41-.57-1.41-1.53 0-.83.55-2.76 1.22-5.38l.91-3.56h3.25c.45 0 .72-.18.81-.59.15-.6.39-1.65.47-1.94.1-.37-.12-.66-.53-.66h-3.22c.23-.92 1.16-3.93 1.16-5.88-.05-3.9-3.36-7.2-8.05-7.2zm-92 5.94c-1.45 0-2.71 1.24-2.81 2.75-.1 1.51 1.01 2.72 2.47 2.72 1.46 0 2.71-1.21 2.81-2.72.1-1.51-1.01-2.75-2.47-2.75zm38.63 10.16c1.42 0 1.91.85 1.91 1.88 0 1.74-1.33 2.81-3.44 2.81-.76 0-1.81-.17-2.44-.38.26-1.6 1.27-4.31 3.97-4.31zm30.5 0c1.3 0 1.94.85 1.94 1.88 0 1.74-1.36 2.81-3.47 2.81-.76 0-1.82-.17-2.44-.38.26-1.6 1.41-4.31 3.97-4.31z"/><path id="path3884" class="st0" d="M789.58 215.58c-10.95 0-19.82 8.87-19.82 19.82 0 14.74 15.85 30.93 19.82 30.93s19.82-16.2 19.82-30.93c0-10.95-8.87-19.82-19.82-19.82zm0 7.86c6.64 0 12.03 5.38 12.03 12.03 0 6.64-5.38 12.03-12.03 12.03s-12.03-5.38-12.03-12.03c0-2.63.85-5.06 2.29-7.04a4.852 4.852 0 004.84 4.56c2.68 0 4.86-2.18 4.86-4.86 0-1.92-1.11-3.56-2.73-4.35.9-.22 1.82-.34 2.77-.34z"/><path id="path14" class="st0" d="M1077.55 244.87c-1.36 0-2.46 1.07-2.46 2.39v28.68c0 1.32 1.1 2.39 2.46 2.39h28.34c1.36 0 2.46-1.07 2.46-2.39v-28.68c0-1.32-1.1-2.39-2.46-2.39h-28.34zm5.14 5.61c1.72 0 2.77 1.13 2.8 2.61 0 1.45-1.09 2.61-2.84 2.61h-.03c-1.69 0-2.78-1.16-2.78-2.61.01-1.48 1.14-2.61 2.85-2.61zm-82.28.02c-1.72 0-2.84 1.13-2.84 2.61 0 1.45 1.09 2.61 2.78 2.61h.04c1.75 0 2.84-1.16 2.84-2.61-.04-1.48-1.11-2.61-2.82-2.61zm-18.43.46v21.94h13.88v-4.56H987v-17.39h-5.02zm40.64 0v21.94h5.02V268l1.26-1.58 3.93 6.48h6.19l-6.62-9.38 5.79-6.38h-6.05s-4.14 5.71-4.5 6.38v-12.56h-5.02zm42.39 0v7.59h-.06c-.73-1.06-2.24-1.77-4.26-1.77-3.87 0-7.27 3.09-7.24 8.38 0 4.9 3.07 8.1 6.9 8.1 2.08 0 4.07-.9 5.06-2.65h.1l.2 2.29h4.46c-.07-1.06-.14-2.9-.14-4.71v-17.24l-5.02.01zm-19.6 5.79c-5.59 0-8.16 4.42-8.16 8.42 0 4.96 3.14 8.06 8.63 8.06 2.18 0 4.2-.33 5.85-1.01l-.66-3.32c-1.35.45-2.74.68-4.46.68-2.35 0-4.4-.97-4.57-3.02l10.42.03c.07-.39.16-1.13.16-1.98-.01-3.9-1.99-7.86-7.21-7.86zm52.1.67c3.31 0 5.78 2.16 5.78 6.8v8.66h-5.02v-8.09c0-2.03-.73-3.42-2.54-3.42-1.39 0-2.22.94-2.58 1.84-.13.32-.16.77-.16 1.22v8.44h-5.03s.07-13.69 0-15.11h5.03v2.13c.66-1.02 1.86-2.47 4.52-2.47zm-4.53 2.48c-.01.02-.03.04-.04.06h.04v-.06zm-78.21-2.46c-2.66 0-3.86 1.46-4.53 2.49v.06h-.04c.01-.02.03-.04.04-.06v-2.13h-5.02c.07 1.42 0 15.11 0 15.11h5.02v-8.44c0-.45.04-.91.17-1.23.36-.9 1.18-1.84 2.57-1.84 1.82 0 2.55 1.39 2.55 3.42v8.09h5.02v-8.66c.01-4.66-2.47-6.81-5.78-6.81zm65.38.33h5.02v15.11h-5.02v-15.11zm-82.29.02v15.11h5.02v-15.11h-5.02zm47.29 2.22c2.28 0 2.8 2.04 2.8 3.2h-5.94c.13-1.3.99-3.2 3.14-3.2zm16.86.55c1.55 0 2.64 1.06 2.93 2.39.07.29.06.61.06.9v2.06c0 .39-.03.78-.09 1.1-.3 1.39-1.49 2.35-2.94 2.35-2.08 0-3.44-1.67-3.44-4.31.01-2.49 1.17-4.49 3.48-4.49z"/><path id="path4026" class="st0" d="M874.46 243.12c-1.19.28-2.34.39-3.37.39-5.82 0-10.31-4.07-10.31-11.14 0-3.47 1.34-5.27 3.24-5.27 1.8 0 3.01 1.62 3.01 4.9 0 1.87-.5 3.91-.87 5.12 0 0 1.8 3.13 6.7 2.17 1.04-2.31 1.61-5.31 1.61-7.94 0-7.07-3.61-11.19-10.21-11.19-6.79 0-10.77 5.22-10.77 12.11 0 6.82 3.19 12.68 8.45 15.35-2.21 4.42-5.02 8.32-7.96 11.26-5.33-6.44-10.14-15.02-12.11-31.78h-7.86c3.63 27.91 14.45 36.79 17.31 38.5 1.62.97 3.01.92 4.49.09 2.32-1.32 9.3-8.29 13.16-16.46 1.62 0 3.57-.19 5.51-.63l-.02-5.48z"/><path id="path4115" class="st0" d="M579.76 217.49c-12.78 0-19.57 8.58-19.57 17.93 0 4.34 2.31 9.75 6.01 11.47.56.26.86.15.99-.39.1-.41.6-2.42.82-3.36.07-.3.04-.56-.21-.85-1.22-1.48-2.2-4.21-2.2-6.76 0-6.53 4.95-12.85 13.37-12.85 7.28 0 12.37 4.96 12.37 12.05 0 8.01-4.04 13.56-9.31 13.56-2.91 0-5.09-2.4-4.39-5.35.84-3.52 2.45-7.32 2.45-9.86 0-2.28-1.22-4.17-3.75-4.17-2.97 0-5.36 3.08-5.36 7.2 0 2.62.89 4.39.89 4.39s-2.93 12.41-3.47 14.72c-.91 3.92.12 10.27.21 10.83.05.3.38.4.56.15.29-.38 3.83-5.69 4.83-9.53l1.84-7.04c.97 1.84 3.79 3.4 6.79 3.4 8.93 0 15.37-8.22 15.37-18.42.02-9.8-7.96-17.12-18.24-17.12"/><path id="path4157" class="st0" d="M698.14 215.23c-2.07 0-3.76 1.63-3.76 3.66v43.79c0 2.02 1.68 3.66 3.76 3.66h43.28c2.07 0 3.76-1.63 3.76-3.66v-43.79c0-2.02-1.68-3.66-3.76-3.66h-43.28zm7.85 8.58c2.62 0 4.23 1.72 4.28 3.98 0 2.21-1.66 3.98-4.34 3.98h-.04c-2.57 0-4.24-1.77-4.24-3.98 0-2.26 1.72-3.98 4.34-3.98zm22.62 10.58c5.05 0 8.82 3.3 8.82 10.39v13.23h-7.67v-12.35c0-3.1-1.11-5.22-3.88-5.22-2.12 0-3.39 1.44-3.94 2.82-.2.49-.24 1.17-.24 1.86v12.89h-7.68s.1-20.91 0-23.08h7.68v3.26c1.02-1.57 2.85-3.8 6.91-3.8zm-6.91 3.8l-.06.09h.06v-.09zm-19.59-3.26h7.67v23.08h-7.67v-23.08z"/><path id="path4173" class="st0" d="M646.2 219.17c-13.03 0-23.59 10.56-23.59 23.59 0 9.68 5.84 17.99 14.19 21.63-.13-1.81-.15-3.96.23-5.61.45-1.95 2.93-12.43 2.93-12.43s-.76-1.5-.76-3.72c0-3.48 2.03-6.07 4.53-6.07 2.13 0 3.16 1.6 3.16 3.52 0 2.14-1.36 5.36-2.07 8.33-.59 2.49 1.25 4.52 3.71 4.52 4.45 0 7.86-4.69 7.86-11.46 0-5.99-4.3-10.17-10.45-10.17-7.11 0-11.29 5.33-11.29 10.85 0 2.15.82 4.46 1.85 5.71.21.25.25.47.18.72-.19.79-.61 2.49-.69 2.84-.11.46-.37.55-.84.33-3.12-1.45-5.07-6.01-5.07-9.68 0-7.9 5.72-15.14 16.52-15.14 8.68 0 15.42 6.18 15.42 14.45 0 8.62-5.44 15.56-12.98 15.56-2.53 0-4.91-1.32-5.73-2.88 0 0-1.25 4.78-1.55 5.95-.44 1.7-1.47 3.72-2.39 5.33 2.16.65 4.45 1.01 6.83 1.01 13.03 0 23.59-10.55 23.59-23.58 0-13.04-10.56-23.6-23.59-23.6z"/><path id="Blue_1_" class="st0" d="M463.13 119.45c-1.55 0-2.8 1.25-2.8 2.8v45.19c0 1.55 1.25 2.8 2.8 2.8h24.33v-19.66h-6.62v-7.67h6.62v-5.65c0-6.56 4.01-10.13 9.86-10.13 2.8 0 5.21.21 5.91.3v6.85h-4.06c-3.18 0-3.8 1.51-3.8 3.73v4.9h7.59l-.99 7.67h-6.6v19.66h12.95c1.55 0 2.8-1.25 2.8-2.8v-45.19c0-1.55-1.25-2.8-2.8-2.8h-45.19z"/><path id="path22" class="st0" d="M660.12 133.86c-1.87.83-3.88 1.39-5.98 1.64 2.15-1.29 3.8-3.33 4.58-5.76a20.955 20.955 0 01-6.62 2.53c-1.9-2.02-4.61-3.29-7.6-3.29-5.76 0-10.42 4.66-10.42 10.42 0 .82.09 1.61.27 2.37-8.66-.43-16.34-4.58-21.48-10.89-.9 1.54-1.41 3.33-1.41 5.24 0 3.62 1.84 6.8 4.64 8.67-1.71-.05-3.31-.52-4.72-1.3v.13c0 5.05 3.59 9.26 8.36 10.22-.87.24-1.79.36-2.74.36-.67 0-1.32-.06-1.96-.19 1.33 4.14 5.17 7.15 9.73 7.24-3.57 2.8-8.06 4.46-12.94 4.46-.84 0-1.67-.05-2.49-.15a29.46 29.46 0 0015.97 4.68c19.17 0 29.64-15.88 29.64-29.65 0-.45-.01-.9-.03-1.35 2.03-1.46 3.8-3.29 5.2-5.38"/><path id="path5" class="st0" d="M808.46 170.24c-.14 0-.28-.01-.39-.01-.08.01-.17.01-.25.01-3.02 0-5.05-1.43-6.83-2.69-1.28-.9-2.49-1.76-3.9-1.99-.69-.12-1.38-.17-2.05-.17-1.2 0-2.15.19-2.85.32-.43.08-.79.15-1.08.15-.3 0-.66-.07-.81-.58-.12-.41-.21-.8-.29-1.18-.21-.95-.36-1.53-.71-1.58-3.79-.59-6.03-1.45-6.48-2.49a.996.996 0 01-.08-.33.6.6 0 01.51-.63c3.01-.5 5.69-2.09 7.96-4.73 1.76-2.05 2.62-4.01 2.72-4.22 0-.01.01-.02.01-.03.44-.89.52-1.66.26-2.28-.49-1.15-2.11-1.67-3.18-2.01a8.64 8.64 0 01-.72-.24c-.95-.37-2.51-1.17-2.3-2.26.15-.8 1.21-1.35 2.06-1.35.24 0 .45.04.62.12.96.45 1.83.68 2.58.68.93 0 1.37-.35 1.48-.45l-.09-1.51v-.01c-.22-3.46-.49-7.77.61-10.24 3.3-7.39 10.29-7.97 12.35-7.97l.9-.01h.12c2.07 0 9.08.58 12.38 7.97 1.1 2.47.83 6.78.61 10.25l-.01.17c-.03.47-.06.92-.08 1.35.1.09.51.42 1.34.45.71-.03 1.53-.25 2.43-.68.28-.13.59-.16.79-.16.32 0 .64.06.91.17l.01.01c.76.27 1.26.81 1.27 1.38.01.53-.38 1.32-2.32 2.09-.2.08-.45.16-.72.24-1.07.34-2.69.85-3.18 2.01-.27.62-.18 1.39.26 2.28.01.01.01.02.01.03.13.32 3.4 7.76 10.68 8.95a.6.6 0 01.51.63c-.01.11-.03.22-.08.33-.44 1.04-2.68 1.9-6.48 2.49-.36.05-.51.63-.71 1.57-.08.39-.17.77-.29 1.17-.11.38-.36.56-.75.56h-.06c-.26 0-.62-.05-1.08-.14-.8-.16-1.7-.3-2.85-.3-.67 0-1.36.06-2.05.17-1.41.24-2.62 1.09-3.89 1.99-1.78 1.28-3.8 2.71-6.82 2.7"/><path id="path3805" class="st0" d="M957.72 120.59c-.88 0-1.56.72-1.56 1.59v46.47c0 .88.69 1.59 1.56 1.59h47.63c.88 0 1.59-.72 1.59-1.59v-46.47c0-.88-.72-1.59-1.59-1.59h-47.63zm17.72 14.19c2.76 0 5.27 1.06 7.16 2.78-2.23 2.1-2.16 2.22-3.03 3.09-1.09-.9-2.28-1.56-4.13-1.56-3.49 0-6.22 2.82-6.22 6.31 0 3.49 2.73 6.34 6.22 6.34 3.45 0 4.85-1.49 5.75-4.22h-5.75v-4.22h10.22c.71 5.1-1.44 12.75-10.22 12.75-5.88 0-10.66-4.78-10.66-10.66 0-5.86 4.78-10.61 10.66-10.61zm16.53 5.06h2.63v3.69h3.69v2.63h-3.69v3.78h-2.63v-3.78h-3.78v-2.63h3.78v-3.69z"/><path id="path4180" class="st0" d="M566.45 119.45c-6.89 0-11.61 4.21-11.61 11.93v6.66h-7.8v9.03h7.8v23.16h9.32v-23.16h7.78l1.17-9.03h-8.95v-5.77c0-2.61.73-4.4 4.48-4.4h4.78v-8.07c-.83-.1-3.67-.35-6.97-.35z"/><path id="rect4197" class="st0" d="M880.41 119.45c-6.07 0-10.95 4.89-10.95 10.95v28.88c0 6.07 4.89 10.95 10.95 10.95h28.88c6.07 0 10.95-4.89 10.95-10.95V130.4c0-6.07-4.89-10.95-10.95-10.95h-28.88zm14.65 11.53h.07c1.2 0 5.28.33 7.2 4.64.64 1.44.48 3.94.36 5.96l-.01.1c-.02.27-.03.53-.05.78.06.05.3.25.79.26.41-.02.89-.15 1.41-.4.16-.08.35-.09.47-.09.18 0 .37.04.52.1h.01c.44.16.73.47.74.8.01.31-.22.77-1.35 1.21-.12.05-.26.09-.42.14-.62.2-1.56.5-1.84 1.17-.15.36-.11.81.15 1.33 0 .01.01.01.01.02.08.18 1.98 4.51 6.21 5.21.18.03.31.19.3.37 0 .06-.02.13-.05.19-.26.6-1.56 1.1-3.77 1.44-.21.03-.29.37-.41.92-.05.23-.1.45-.17.68-.06.22-.21.33-.44.33h-.03c-.15 0-.36-.03-.63-.09-.47-.09-.99-.17-1.66-.17-.39 0-.79.03-1.19.1-.82.14-1.52.63-2.26 1.16-1.04.74-2.22 1.56-3.98 1.56-.08 0-.16 0-.23-.01-.05 0-.1.01-.15.01-1.76 0-2.94-.83-3.98-1.56-.74-.53-1.44-1.02-2.26-1.16-.4-.07-.8-.1-1.19-.1-.7 0-1.25.11-1.66.19-.25.05-.46.09-.63.09-.17 0-.38-.04-.47-.33-.07-.24-.12-.46-.17-.68-.12-.55-.21-.89-.41-.92-2.21-.34-3.51-.84-3.77-1.45-.03-.06-.04-.13-.05-.19-.01-.18.12-.34.3-.37 1.75-.29 3.31-1.21 4.63-2.75 1.02-1.19 1.53-2.33 1.58-2.46 0-.01.01-.01.01-.02.25-.52.3-.97.15-1.33-.28-.67-1.22-.97-1.84-1.17-.15-.05-.3-.09-.42-.14-.55-.22-1.46-.68-1.34-1.31.09-.46.7-.79 1.2-.79.14 0 .26.02.36.07.56.26 1.07.4 1.5.4.54 0 .8-.21.86-.26-.02-.29-.04-.59-.05-.88H887c-.13-2.01-.28-4.52.36-5.95 1.92-4.3 5.99-4.64 7.19-4.64.02-.01.51-.01.51-.01z"/><text transform="translate(641.942 307.854)" class="st0" font-family="TeXGyreAdventor-Bold" font-size="6.321">THESE ICONS ARE ALL PROPERTY AND REGISTERED TRADEMARKS OF THEIR RESPECTIVE OWNERS.</text><text transform="translate(693.378 315.756)" class="st0" font-family="TeXGyreAdventor-Bold" font-size="6.321">MAKE SURE TO CHECK EACH BRAND&apos;S GUIDELINES FOR USING</text><text transform="translate(673.453 323.657)" class="st0" font-family="TeXGyreAdventor-Bold" font-size="6.321">THEIR TRADEMARK BEOFRE IMPLEMENTING THEM INTO YOUR DESIGN WORK</text><path id="path2997" d="M901.05 219.3l-2 8v35.98h9v5h5l5-5h8l15.99-15.99V219.3h-40.99zm4 4h32.99v21.99l-7 7h-11l-6 6v-6h-9l.01-28.99zm10.99 7.99v12h4v-12h-4zm11 0v12h4v-12h-4z" fill-rule="evenodd" clip-rule="evenodd" fill="#f4f4f4"/><path id="path14-2" class="st0" d="M1101.15 141.71v-7.21H1096v7.21h-7.42v5.15h7.42v7.42h5.15v-7.42h7.21v-5.15h-7.21zm-37.49-.41v8.24s7.99-.01 11.25-.01c-1.76 5.34-4.5 8.25-11.25 8.25-6.83 0-12.15-5.53-12.15-12.36 0-6.83 5.33-12.36 12.15-12.36 3.61 0 5.94 1.27 8.08 3.04 1.71-1.71 1.57-1.96 5.92-6.07-3.7-3.36-8.61-5.41-14-5.41-11.49 0-20.8 9.31-20.8 20.8s9.31 20.8 20.8 20.8c17.17 0 21.37-14.95 19.98-24.92h-19.98"/><path id="rect3687" class="st0" d="M710.55 119.07c-8.25 0-14.96 6.71-14.96 14.96v21.64c0 8.25 6.71 14.96 14.96 14.96h21.77c8.25 0 14.96-6.71 14.96-14.96v-21.64c0-8.25-6.71-14.96-14.96-14.96h-21.77zm0 4.43h21.77c5.87 0 10.53 4.66 10.53 10.53v21.64c0 5.87-4.66 10.53-10.53 10.53h-21.77c-5.87 0-10.53-4.66-10.53-10.53v-21.64c0-5.87 4.66-10.53 10.53-10.53zm24.75 4.43c-1.71 0-3.1 1.39-3.1 3.1 0 1.71 1.39 3.1 3.1 3.1s3.1-1.39 3.1-3.1c0-1.71-1.38-3.1-3.1-3.1zm-13.87 3.64c-7.31 0-13.28 5.97-13.28 13.28s5.97 13.28 13.28 13.28 13.28-5.97 13.28-13.28-5.97-13.28-13.28-13.28zm0 4.44c4.91 0 8.85 3.93 8.85 8.84s-3.94 8.84-8.85 8.84-8.84-3.93-8.84-8.84 3.93-8.84 8.84-8.84z"/><path id="path5068" class="st0" d="M488.29 223.35c-10.45 0-20.9.8-23.19 2.4-4.59 3.2-4.59 29.13 0 32.33 4.59 3.2 41.79 3.2 46.38 0 4.59-3.2 4.59-29.13 0-32.33-2.29-1.6-12.74-2.4-23.19-2.4zm-5.3 10.8l13.45 7.76-13.45 7.76v-15.52z"/></g></svg>