<svg version="1.1" id="Layer_1" xmlns="http://www.w3.org/2000/svg" x="0" y="0" width="250" viewBox="0 0 242.31 87.54" xml:space="preserve"><style>.st0{fill:#fff}.st1{fill:#58c7d8}.st2{fill:#5ac7d8}.st3{fill:#c4d92d}</style><path class="st0" d="M125.27 39.13c5.43 0 9.76 3.63 9.76 9.02 0 5.36-4.33 8.93-9.72 8.93-5.4 0-9.72-3.56-9.72-8.93-.01-5.39 4.32-9.02 9.68-9.02zm.04 13.16c2.1 0 3.9-1.57 3.9-4.13 0-2.6-1.8-4.23-3.9-4.23-2.1 0-3.9 1.63-3.9 4.23 0 2.56 1.8 4.13 3.9 4.13z"/><path class="st1" d="M203.89 39.13h5.31v17.95h-5.31V39.13zM211.4 32.87h5.37v16.97c0 1.66.28 2.23 1.49 2.23.34 0 .65-.03.65-.03v5.07s-.75.1-1.62.1c-2.86 0-5.9-.74-5.9-6.59V32.87z"/><path class="st0" d="M99.93 41.2c1.54-1.51 3.12-2.07 5.23-2.07 2.14 0 3.98.69 5.53 2.07 2.04 1.81 3.09 4.18 3.09 6.95 0 2.53-.99 4.8-2.83 6.58-1.65 1.62-3.65 2.44-5.89 2.44-2.24 0-3.85-.82-4.94-2.24v11.16H94.9V39.23l5.03 1.97m4.08 2.64c-2.24 0-4.11 1.84-4.11 4.28 0 2.53 1.84 4.44 4.28 4.44 2.47 0 4.41-2 4.41-4.37-.01-2.48-1.91-4.35-4.58-4.35"/><path class="st1" d="M188.01 41.2c1.54-1.51 3.12-2.07 5.23-2.07 2.14 0 3.98.69 5.53 2.07 2.04 1.81 3.09 4.18 3.09 6.95 0 2.53-.99 4.8-2.83 6.58-1.65 1.62-3.65 2.44-5.89 2.44-2.24 0-3.85-.82-4.94-2.24v11.16h-5.23V39.23l5.04 1.97m4.08 2.64c-2.24 0-4.11 1.84-4.11 4.28 0 2.53 1.84 4.44 4.28 4.44 2.47 0 4.41-2 4.41-4.37-.01-2.48-1.92-4.35-4.58-4.35"/><path class="st0" d="M150.23 33.71h5.09v5.58h2.57v3.87h-2.57v8.3c0 1.58.36 2.1 1.94 2.1.03 0 1.72-.07 1.75-.07v3.49c-.29 0-2.18.1-2.44.1-4.33 0-6.36-1.68-6.36-5.39-.01-.19.02-17.98.02-17.98M147.61 39.2h-.16c-2.63-.25-4.24.65-5.3 1.57v-.06.06c-.18.16-.34.31-.49.46l-4.46-2.03v18.02h5.18V49.7c0-1.08.1-1.97.3-2.7.83-2.97 3.06-3.47 4.43-3.47.7 0 1.17.12 1.17.12v-4.37a2.79 2.79 0 00-.67-.08zM172.9 55.14c-1.55 1.52-3.13 2.08-5.24 2.08-2.15 0-3.99-.69-5.55-2.08-2.04-1.82-3.1-4.19-3.1-6.97 0-2.54.99-4.82 2.84-6.6 1.65-1.62 3.66-2.44 5.91-2.44 2.15 0 3.8.72 4.98 2.24V39.4h5.21v17.72l-5.05-1.98zm-4.09-2.64c2.24 0 4.12-1.85 4.12-4.29 0-2.54-1.88-4.45-4.32-4.45-2.47 0-4.39 2.01-4.39 4.39 0 2.47 1.92 4.35 4.59 4.35M84.84 51.7v.16c0 .95.76 1.62 1.84 1.62s1.71-.54 1.71-1.49c0-1.39-1.37-1.33-3.49-2-2.95-.92-4.38-2.51-4.38-5.08 0-3.33 2.44-5.68 6.5-5.68 3.52 0 5.77 2 5.97 5.23h-4.54c-.19-1.11-.6-1.59-1.49-1.59-.98 0-1.55.57-1.55 1.4 0 1.17 1.05 1.46 2.79 1.93 3.49.95 5.23 2.28 5.23 5.11 0 3.42-2.7 5.9-6.82 5.9-3.81 0-6.15-2.06-6.5-5.52h4.73z"/><path class="st1" d="M224.87 51.7v.16c0 .95.76 1.62 1.84 1.62s1.71-.54 1.71-1.49c0-1.39-1.37-1.33-3.49-2-2.95-.92-4.38-2.51-4.38-5.08 0-3.33 2.44-5.68 6.5-5.68 3.52 0 5.77 2 5.97 5.23h-4.54c-.19-1.11-.6-1.59-1.49-1.59-.98 0-1.55.57-1.55 1.4 0 1.17 1.05 1.46 2.79 1.93 3.49.95 5.23 2.28 5.23 5.11 0 3.42-2.7 5.9-6.82 5.9-3.81 0-6.15-2.06-6.5-5.52h4.73z"/><path class="st0" d="M104.19 64.74s.49.51 1.26.51c.36 0 .73-.19.73-.55 0-.81-2.25-.64-2.25-2.07 0-.8.71-1.25 1.58-1.25.96 0 1.41.48 1.41.48l-.34.63s-.39-.39-1.08-.39c-.36 0-.72.16-.72.54 0 .79 2.25.61 2.25 2.05 0 .73-.62 1.27-1.58 1.27-1.07 0-1.66-.64-1.66-.64l.4-.58zM109.23 61.5h.77v.37c0 .17-.02.32-.02.32h.02s.37-.8 1.47-.8c1.18 0 1.92.94 1.92 2.29 0 1.39-.84 2.29-1.98 2.29-.96 0-1.34-.72-1.34-.72h-.02s.02.16.02.38v1.97h-.84v-6.1zm2.06 3.76c.69 0 1.26-.57 1.26-1.57 0-.95-.51-1.57-1.24-1.57-.66 0-1.26.46-1.26 1.58 0 .78.43 1.56 1.24 1.56zM117.69 61.39c1.31 0 2.36.96 2.36 2.29s-1.06 2.3-2.36 2.3c-1.31 0-2.36-.97-2.36-2.3 0-1.33 1.06-2.29 2.36-2.29zm0 3.87c.83 0 1.51-.66 1.51-1.58 0-.91-.68-1.56-1.51-1.56-.82 0-1.51.65-1.51 1.56.01.92.69 1.58 1.51 1.58zM122.28 61.5h.81v.76c0 .18-.02.33-.02.33h.02c.2-.64.71-1.14 1.39-1.14.11 0 .22.02.22.02v.83s-.11-.03-.24-.03c-.54 0-1.03.38-1.23 1.03-.08.25-.1.52-.1.79v1.79h-.84V61.5zM126.93 62.23h-.57v-.68h.6v-1.26h.81v1.26h1.06v.68h-1.06v1.95c0 .87.61.99.94.99.12 0 .2-.02.2-.02v.74s-.12.02-.29.02c-.56 0-1.68-.17-1.68-1.64v-2.04zM133.35 63.14h.19v-.08c0-.72-.41-.96-.96-.96-.68 0-1.22.42-1.22.42l-.35-.61s.63-.52 1.64-.52c1.11 0 1.73.61 1.73 1.71v2.77h-.78v-.42c0-.2.02-.35.02-.35h-.02s-.35.87-1.4.87c-.75 0-1.49-.46-1.49-1.33 0-1.44 1.9-1.5 2.64-1.5zm-.97 2.17c.71 0 1.17-.74 1.17-1.39v-.14h-.22c-.63 0-1.78.04-1.78.83.01.35.28.7.83.7zM136.86 61.5h.77v.37c0 .17-.02.32-.02.32h.02s.37-.8 1.47-.8c1.18 0 1.92.94 1.92 2.29 0 1.39-.84 2.29-1.98 2.29-.96 0-1.34-.72-1.34-.72h-.02s.02.16.02.38v1.97h-.84v-6.1zm2.05 3.76c.69 0 1.26-.57 1.26-1.57 0-.95-.51-1.57-1.24-1.57-.66 0-1.26.46-1.26 1.58 0 .78.43 1.56 1.24 1.56zM143.27 59.77h.85v.86h-.85v-.86zm0 1.73h.84v4.38h-.84V61.5zM146.6 59.77h.84v4.77c0 .53.21.62.47.62.08 0 .15-.01.15-.01v.74s-.13.02-.28.02c-.48 0-1.18-.13-1.18-1.23v-4.91zM150.22 64.74s.49.51 1.26.51c.36 0 .73-.19.73-.55 0-.81-2.25-.64-2.25-2.07 0-.8.71-1.25 1.58-1.25.96 0 1.41.48 1.41.48l-.34.63s-.39-.39-1.08-.39c-.36 0-.72.16-.72.54 0 .79 2.25.61 2.25 2.05 0 .73-.62 1.27-1.58 1.27-1.07 0-1.66-.64-1.66-.64l.4-.58zM155.27 64.99h.88v.89h-.88v-.89zM160.72 61.39c1.1 0 1.65.64 1.65.64l-.4.59s-.47-.5-1.21-.5c-.88 0-1.52.66-1.52 1.56 0 .89.64 1.58 1.55 1.58.81 0 1.35-.59 1.35-.59l.34.61s-.61.7-1.75.7c-1.38 0-2.35-.98-2.35-2.29 0-1.3.97-2.3 2.34-2.3zM166.69 61.39c1.31 0 2.36.96 2.36 2.29s-1.06 2.3-2.36 2.3c-1.31 0-2.36-.97-2.36-2.3 0-1.33 1.05-2.29 2.36-2.29zm0 3.87c.83 0 1.51-.66 1.51-1.58 0-.91-.68-1.56-1.51-1.56-.82 0-1.51.65-1.51 1.56 0 .92.69 1.58 1.51 1.58zM171.27 61.5h.81v.58c0 .17-.02.32-.02.32h.02c.21-.51.82-1 1.51-1 .74 0 1.17.34 1.32 1h.02c.24-.53.85-1 1.56-1 .99 0 1.45.56 1.45 1.68v2.81h-.84v-2.62c0-.61-.12-1.1-.78-1.1-.61 0-1.07.52-1.23 1.12-.04.18-.06.38-.06.61v2h-.84v-2.62c0-.57-.09-1.1-.76-1.1-.64 0-1.09.53-1.26 1.15-.04.17-.05.37-.05.57v2h-.84v-4.4z"/><g><path class="st2" d="M49.43 34h10.78V17.9l-10.67 6.74z"/><path class="st3" d="M60.21 17.9v11.93l-10.67-5.19v-12.9L38.36 5.28v69.76l30.2-17.44V22.72zM27.29 34H16.51V17.9l10.66 6.74z"/><path class="st2" d="M16.51 17.9v11.93l10.66-5.19v-12.9l11.19-6.46v69.76L8.16 57.6V22.72z"/></g></svg>