<svg xmlns="http://www.w3.org/2000/svg" xmlns:xlink="http://www.w3.org/1999/xlink" version="1.1" id="Layer_1" x="0px" y="0px" viewBox="0 0 246 80" style="enable-background:new 0 0 246 80;" xml:space="preserve">
<style type="text/css">
  .st0{fill:#FFFFFF;}
  .st1{fill:#53CADB;}
  .st2{fill:#53CBDC;}
  .st3{fill:#C4FE16;}
</style>
<g>
  <g>
    <path class="st0" d="M128.5,39c5.4,0,9.8,3.6,9.8,9c0,5.4-4.3,8.9-9.7,8.9s-9.7-3.6-9.7-8.9C118.8,42.6,123.1,39,128.5,39z     M128.5,52.1c2.1,0,3.9-1.6,3.9-4.1c0-2.6-1.8-4.2-3.9-4.2s-3.9,1.6-3.9,4.2C124.6,50.6,126.4,52.1,128.5,52.1z"/>
    <path class="st1" d="M207.1,39h5.3v18h-5.3V39z"/>
    <path class="st1" d="M214.6,32.7h5.4v17c0,1.7,0.3,2.2,1.5,2.2c0.3,0,0.7,0,0.7,0V57c0,0-0.7,0.1-1.6,0.1c-2.9,0-5.9-0.7-5.9-6.6    V32.7z"/>
    <path class="st0" d="M103.2,41c1.5-1.5,3.1-2.1,5.2-2.1c2.1,0,4,0.7,5.5,2.1c2,1.8,3.1,4.2,3.1,6.9c0,2.5-1,4.8-2.8,6.6    c-1.6,1.6-3.7,2.4-5.9,2.4c-2.2,0-3.8-0.8-4.9-2.2v11.2h-5.2V39.1L103.2,41 M107.2,43.7c-2.2,0-4.1,1.8-4.1,4.3    c0,2.5,1.8,4.4,4.3,4.4c2.5,0,4.4-2,4.4-4.4C111.8,45.6,109.9,43.7,107.2,43.7"/>
    <path class="st1" d="M191.2,41c1.5-1.5,3.1-2.1,5.2-2.1c2.1,0,4,0.7,5.5,2.1c2,1.8,3.1,4.2,3.1,6.9c0,2.5-1,4.8-2.8,6.6    c-1.6,1.6-3.7,2.4-5.9,2.4c-2.2,0-3.8-0.8-4.9-2.2v11.2h-5.2V39.1L191.2,41 M195.3,43.7c-2.2,0-4.1,1.8-4.1,4.3    c0,2.5,1.8,4.4,4.3,4.4c2.5,0,4.4-2,4.4-4.4C199.9,45.6,198,43.7,195.3,43.7"/>
    <path class="st0" d="M153.5,33.5h5.1v5.6h2.6V43h-2.6v8.3c0,1.6,0.4,2.1,1.9,2.1c0,0,1.7-0.1,1.8-0.1v3.5c-0.3,0-2.2,0.1-2.4,0.1    c-4.3,0-6.4-1.7-6.4-5.4C153.4,51.3,153.5,33.5,153.5,33.5"/>
    <path class="st0" d="M150.8,39c-0.1,0-0.1,0-0.2,0c-2.6-0.3-4.2,0.7-5.3,1.6v-0.1c0,0,0,0,0,0.1c-0.2,0.2-0.3,0.3-0.5,0.5l-4.5-2    v2.6v4v11.5h5.2v-7.5c0-1.1,0.1-2,0.3-2.7c0.8-3,3.1-3.5,4.4-3.5c0.7,0,1.2,0.1,1.2,0.1v-4.4C151.5,39.1,151.2,39,150.8,39z"/>
    <path class="st0" d="M176.1,55c-1.5,1.5-3.1,2.1-5.2,2.1c-2.1,0-4-0.7-5.5-2.1c-2-1.8-3.1-4.2-3.1-7c0-2.5,1-4.8,2.8-6.6    c1.7-1.6,3.7-2.4,5.9-2.4c2.1,0,3.8,0.7,5,2.2v-2h5.2V57L176.1,55z M172,52.3c2.2,0,4.1-1.8,4.1-4.3c0-2.5-1.9-4.5-4.3-4.5    c-2.5,0-4.4,2-4.4,4.4C167.4,50.5,169.4,52.3,172,52.3"/>
    <path class="st0" d="M88.1,51.5v0.2c0,0.9,0.8,1.6,1.8,1.6c1.1,0,1.7-0.5,1.7-1.5c0-1.4-1.4-1.3-3.5-2c-2.9-0.9-4.4-2.5-4.4-5.1    c0-3.3,2.4-5.7,6.5-5.7c3.5,0,5.8,2,6,5.2h-4.5c-0.2-1.1-0.6-1.6-1.5-1.6c-1,0-1.6,0.6-1.6,1.4c0,1.2,1,1.5,2.8,1.9    c3.5,0.9,5.2,2.3,5.2,5.1c0,3.4-2.7,5.9-6.8,5.9c-3.8,0-6.2-2.1-6.5-5.5H88.1z"/>
    <path class="st1" d="M228.1,51.5v0.2c0,0.9,0.8,1.6,1.8,1.6c1.1,0,1.7-0.5,1.7-1.5c0-1.4-1.4-1.3-3.5-2c-2.9-0.9-4.4-2.5-4.4-5.1    c0-3.3,2.4-5.7,6.5-5.7c3.5,0,5.8,2,6,5.2h-4.5c-0.2-1.1-0.6-1.6-1.5-1.6c-1,0-1.6,0.6-1.6,1.4c0,1.2,1,1.5,2.8,1.9    c3.5,0.9,5.2,2.3,5.2,5.1c0,3.4-2.7,5.9-6.8,5.9c-3.8,0-6.2-2.1-6.5-5.5H228.1z"/>
    <g>
      <path class="st0" d="M107.4,64.6c0,0,0.5,0.5,1.3,0.5c0.4,0,0.7-0.2,0.7-0.5c0-0.8-2.3-0.6-2.3-2.1c0-0.8,0.7-1.2,1.6-1.2     c1,0,1.4,0.5,1.4,0.5l-0.3,0.6c0,0-0.4-0.4-1.1-0.4c-0.4,0-0.7,0.2-0.7,0.5c0,0.8,2.3,0.6,2.3,2.1c0,0.7-0.6,1.3-1.6,1.3     c-1.1,0-1.7-0.6-1.7-0.6L107.4,64.6z"/>
      <path class="st0" d="M112.5,61.3h0.8v0.4c0,0.2,0,0.3,0,0.3h0c0,0,0.4-0.8,1.5-0.8c1.2,0,1.9,0.9,1.9,2.3c0,1.4-0.8,2.3-2,2.3     c-1,0-1.3-0.7-1.3-0.7h0c0,0,0,0.2,0,0.4v2h-0.8V61.3z M114.5,65.1c0.7,0,1.3-0.6,1.3-1.6c0-1-0.5-1.6-1.2-1.6     c-0.7,0-1.3,0.5-1.3,1.6C113.3,64.3,113.7,65.1,114.5,65.1z"/>
      <path class="st0" d="M120.9,61.2c1.3,0,2.4,1,2.4,2.3c0,1.3-1.1,2.3-2.4,2.3c-1.3,0-2.4-1-2.4-2.3     C118.6,62.2,119.6,61.2,120.9,61.2z M120.9,65.1c0.8,0,1.5-0.7,1.5-1.6c0-0.9-0.7-1.6-1.5-1.6c-0.8,0-1.5,0.6-1.5,1.6     C119.4,64.4,120.1,65.1,120.9,65.1z"/>
      <path class="st0" d="M125.5,61.3h0.8v0.8c0,0.2,0,0.3,0,0.3h0c0.2-0.6,0.7-1.1,1.4-1.1c0.1,0,0.2,0,0.2,0v0.8c0,0-0.1,0-0.2,0     c-0.5,0-1,0.4-1.2,1c-0.1,0.3-0.1,0.5-0.1,0.8v1.8h-0.8V61.3z"/>
      <path class="st0" d="M130.1,62.1h-0.6v-0.7h0.6v-1.3h0.8v1.3h1.1v0.7H131V64c0,0.9,0.6,1,0.9,1c0.1,0,0.2,0,0.2,0v0.7     c0,0-0.1,0-0.3,0c-0.6,0-1.7-0.2-1.7-1.6V62.1z"/>
      <path class="st0" d="M136.6,63h0.2v-0.1c0-0.7-0.4-1-1-1c-0.7,0-1.2,0.4-1.2,0.4l-0.3-0.6c0,0,0.6-0.5,1.6-0.5     c1.1,0,1.7,0.6,1.7,1.7v2.8h-0.8v-0.4c0-0.2,0-0.3,0-0.3h0c0,0-0.4,0.9-1.4,0.9c-0.8,0-1.5-0.5-1.5-1.3     C133.9,63,135.8,63,136.6,63z M135.6,65.1c0.7,0,1.2-0.7,1.2-1.4v-0.1h-0.2c-0.6,0-1.8,0-1.8,0.8     C134.8,64.8,135.1,65.1,135.6,65.1z"/>
      <path class="st0" d="M140.1,61.3h0.8v0.4c0,0.2,0,0.3,0,0.3h0c0,0,0.4-0.8,1.5-0.8c1.2,0,1.9,0.9,1.9,2.3c0,1.4-0.8,2.3-2,2.3     c-1,0-1.3-0.7-1.3-0.7h0c0,0,0,0.2,0,0.4v2h-0.8V61.3z M142.1,65.1c0.7,0,1.3-0.6,1.3-1.6c0-1-0.5-1.6-1.2-1.6     c-0.7,0-1.3,0.5-1.3,1.6C140.9,64.3,141.3,65.1,142.1,65.1z"/>
      <path class="st0" d="M146.5,59.6h0.8v0.9h-0.8V59.6z M146.5,61.3h0.8v4.4h-0.8V61.3z"/>
      <path class="st0" d="M149.8,59.6h0.8v4.8c0,0.5,0.2,0.6,0.5,0.6c0.1,0,0.1,0,0.1,0v0.7c0,0-0.1,0-0.3,0c-0.5,0-1.2-0.1-1.2-1.2     V59.6z"/>
      <path class="st0" d="M153.4,64.6c0,0,0.5,0.5,1.3,0.5c0.4,0,0.7-0.2,0.7-0.5c0-0.8-2.3-0.6-2.3-2.1c0-0.8,0.7-1.2,1.6-1.2     c1,0,1.4,0.5,1.4,0.5l-0.3,0.6c0,0-0.4-0.4-1.1-0.4c-0.4,0-0.7,0.2-0.7,0.5c0,0.8,2.3,0.6,2.3,2.1c0,0.7-0.6,1.3-1.6,1.3     c-1.1,0-1.7-0.6-1.7-0.6L153.4,64.6z"/>
      <path class="st0" d="M158.5,64.8h0.9v0.9h-0.9V64.8z"/>
      <path class="st0" d="M163.9,61.2c1.1,0,1.6,0.6,1.6,0.6l-0.4,0.6c0,0-0.5-0.5-1.2-0.5c-0.9,0-1.5,0.7-1.5,1.6     c0,0.9,0.6,1.6,1.6,1.6c0.8,0,1.4-0.6,1.4-0.6l0.3,0.6c0,0-0.6,0.7-1.7,0.7c-1.4,0-2.3-1-2.3-2.3     C161.6,62.2,162.6,61.2,163.9,61.2z"/>
      <path class="st0" d="M169.9,61.2c1.3,0,2.4,1,2.4,2.3c0,1.3-1.1,2.3-2.4,2.3c-1.3,0-2.4-1-2.4-2.3     C167.5,62.2,168.6,61.2,169.9,61.2z M169.9,65.1c0.8,0,1.5-0.7,1.5-1.6c0-0.9-0.7-1.6-1.5-1.6c-0.8,0-1.5,0.6-1.5,1.6     C168.4,64.4,169.1,65.1,169.9,65.1z"/>
      <path class="st0" d="M174.5,61.3h0.8v0.6c0,0.2,0,0.3,0,0.3h0c0.2-0.5,0.8-1,1.5-1c0.7,0,1.2,0.3,1.3,1h0c0.2-0.5,0.8-1,1.6-1     c1,0,1.4,0.6,1.4,1.7v2.8h-0.8v-2.6c0-0.6-0.1-1.1-0.8-1.1c-0.6,0-1.1,0.5-1.2,1.1c0,0.2-0.1,0.4-0.1,0.6v2h-0.8v-2.6     c0-0.6-0.1-1.1-0.8-1.1c-0.6,0-1.1,0.5-1.3,1.2c0,0.2-0.1,0.4-0.1,0.6v2h-0.8V61.3z"/>
    </g>
  </g>
  <g>
    <polygon class="st2" points="52.6,33.8 63.4,33.8 63.4,17.7 52.8,24.5   "/>
    <polygon class="st3" points="63.4,17.7 63.4,29.7 52.8,24.5 52.8,11.6 41.6,5.1 41.6,74.9 71.8,57.4 71.8,22.6   "/>
    <polygon class="st3" points="30.5,33.8 19.7,33.8 19.7,17.7 30.4,24.5   "/>
    <polygon class="st2" points="19.7,17.7 19.7,29.7 30.4,24.5 30.4,11.6 41.6,5.1 41.6,74.9 11.4,57.4 11.4,22.6   "/>
  </g>
</g>
</svg>