<svg version="1.1" id="Layer_1" xmlns="http://www.w3.org/2000/svg" x="0" y="0" viewBox="0 0 246 80" xml:space="preserve"><style>.st0{fill:#fff}.st1{fill:#53cadb}.st2{fill:#53cbdc}.st3{fill:#c4fe16}</style><path class="st0" d="M128.5 39c5.4 0 9.8 3.6 9.8 9s-4.3 8.9-9.7 8.9-9.7-3.6-9.7-8.9c-.1-5.4 4.2-9 9.6-9zm0 13.1c2.1 0 3.9-1.6 3.9-4.1 0-2.6-1.8-4.2-3.9-4.2s-3.9 1.6-3.9 4.2 1.8 4.1 3.9 4.1z"/><path class="st1" d="M207.1 39h5.3v18h-5.3V39zM214.6 32.7h5.4v17c0 1.7.3 2.2 1.5 2.2h.7V57s-.7.1-1.6.1c-2.9 0-5.9-.7-5.9-6.6V32.7z"/><path class="st0" d="M103.2 41c1.5-1.5 3.1-2.1 5.2-2.1s4 .7 5.5 2.1c2 1.8 3.1 4.2 3.1 6.9 0 2.5-1 4.8-2.8 6.6-1.6 1.6-3.7 2.4-5.9 2.4s-3.8-.8-4.9-2.2v11.2h-5.2V39.1l5 1.9m4 2.7c-2.2 0-4.1 1.8-4.1 4.3s1.8 4.4 4.3 4.4 4.4-2 4.4-4.4c0-2.4-1.9-4.3-4.6-4.3"/><path class="st1" d="M191.2 41c1.5-1.5 3.1-2.1 5.2-2.1s4 .7 5.5 2.1c2 1.8 3.1 4.2 3.1 6.9 0 2.5-1 4.8-2.8 6.6-1.6 1.6-3.7 2.4-5.9 2.4s-3.8-.8-4.9-2.2v11.2h-5.2V39.1l5 1.9m4.1 2.7c-2.2 0-4.1 1.8-4.1 4.3s1.8 4.4 4.3 4.4 4.4-2 4.4-4.4c0-2.4-1.9-4.3-4.6-4.3"/><path class="st0" d="M153.5 33.5h5.1v5.6h2.6V43h-2.6v8.3c0 1.6.4 2.1 1.9 2.1 0 0 1.7-.1 1.8-.1v3.5c-.3 0-2.2.1-2.4.1-4.3 0-6.4-1.7-6.4-5.4-.1-.2 0-18 0-18M150.8 39h-.2c-2.6-.3-4.2.7-5.3 1.6v-.1.1l-.5.5-4.5-2v18.1h5.2v-7.5c0-1.1.1-2 .3-2.7.8-3 3.1-3.5 4.4-3.5.7 0 1.2.1 1.2.1v-4.4c.1-.1-.2-.2-.6-.2zM176.1 55c-1.5 1.5-3.1 2.1-5.2 2.1s-4-.7-5.5-2.1c-2-1.8-3.1-4.2-3.1-7 0-2.5 1-4.8 2.8-6.6 1.7-1.6 3.7-2.4 5.9-2.4 2.1 0 3.8.7 5 2.2v-2h5.2V57l-5.1-2zm-4.1-2.7c2.2 0 4.1-1.8 4.1-4.3s-1.9-4.5-4.3-4.5c-2.5 0-4.4 2-4.4 4.4 0 2.6 2 4.4 4.6 4.4M88.1 51.5v.2c0 .9.8 1.6 1.8 1.6 1.1 0 1.7-.5 1.7-1.5 0-1.4-1.4-1.3-3.5-2-2.9-.9-4.4-2.5-4.4-5.1 0-3.3 2.4-5.7 6.5-5.7 3.5 0 5.8 2 6 5.2h-4.5c-.2-1.1-.6-1.6-1.5-1.6-1 0-1.6.6-1.6 1.4 0 1.2 1 1.5 2.8 1.9 3.5.9 5.2 2.3 5.2 5.1 0 3.4-2.7 5.9-6.8 5.9-3.8 0-6.2-2.1-6.5-5.5h4.8z"/><path class="st1" d="M228.1 51.5v.2c0 .9.8 1.6 1.8 1.6 1.1 0 1.7-.5 1.7-1.5 0-1.4-1.4-1.3-3.5-2-2.9-.9-4.4-2.5-4.4-5.1 0-3.3 2.4-5.7 6.5-5.7 3.5 0 5.8 2 6 5.2h-4.5c-.2-1.1-.6-1.6-1.5-1.6-1 0-1.6.6-1.6 1.4 0 1.2 1 1.5 2.8 1.9 3.5.9 5.2 2.3 5.2 5.1 0 3.4-2.7 5.9-6.8 5.9-3.8 0-6.2-2.1-6.5-5.5h4.8z"/><path class="st0" d="M107.4 64.6s.5.5 1.3.5c.4 0 .7-.2.7-.5 0-.8-2.3-.6-2.3-2.1 0-.8.7-1.2 1.6-1.2 1 0 1.4.5 1.4.5l-.3.6s-.4-.4-1.1-.4c-.4 0-.7.2-.7.5 0 .8 2.3.6 2.3 2.1 0 .7-.6 1.3-1.6 1.3-1.1 0-1.7-.6-1.7-.6l.4-.7zM112.5 61.3h.8v.7s.4-.8 1.5-.8c1.2 0 1.9.9 1.9 2.3s-.8 2.3-2 2.3c-1 0-1.3-.7-1.3-.7v2.4h-.8v-6.2zm2 3.8c.7 0 1.3-.6 1.3-1.6s-.5-1.6-1.2-1.6-1.3.5-1.3 1.6c0 .8.4 1.6 1.2 1.6zM120.9 61.2c1.3 0 2.4 1 2.4 2.3 0 1.3-1.1 2.3-2.4 2.3-1.3 0-2.4-1-2.4-2.3.1-1.3 1.1-2.3 2.4-2.3zm0 3.9c.8 0 1.5-.7 1.5-1.6 0-.9-.7-1.6-1.5-1.6s-1.5.6-1.5 1.6c0 .9.7 1.6 1.5 1.6zM125.5 61.3h.8v1.1c.2-.6.7-1.1 1.4-1.1h.2v.8h-.2c-.5 0-1 .4-1.2 1-.1.3-.1.5-.1.8v1.8h-.8v-4.4zM130.1 62.1h-.6v-.7h.6v-1.3h.8v1.3h1.1v.7h-1V64c0 .9.6 1 .9 1h.2v.7h-.3c-.6 0-1.7-.2-1.7-1.6v-2zM136.6 63h.2v-.1c0-.7-.4-1-1-1-.7 0-1.2.4-1.2.4l-.3-.6s.6-.5 1.6-.5c1.1 0 1.7.6 1.7 1.7v2.8h-.8v-.4-.3s-.4.9-1.4.9c-.8 0-1.5-.5-1.5-1.3 0-1.6 1.9-1.6 2.7-1.6zm-1 2.1c.7 0 1.2-.7 1.2-1.4v-.1h-.2c-.6 0-1.8 0-1.8.8 0 .4.3.7.8.7zM140.1 61.3h.8v.7s.4-.8 1.5-.8c1.2 0 1.9.9 1.9 2.3s-.8 2.3-2 2.3c-1 0-1.3-.7-1.3-.7v2.4h-.8v-6.2zm2 3.8c.7 0 1.3-.6 1.3-1.6s-.5-1.6-1.2-1.6-1.3.5-1.3 1.6c0 .8.4 1.6 1.2 1.6zM146.5 59.6h.8v.9h-.8v-.9zm0 1.7h.8v4.4h-.8v-4.4zM149.8 59.6h.8v4.8c0 .5.2.6.5.6h.1v.7h-.3c-.5 0-1.2-.1-1.2-1.2v-4.9zM153.4 64.6s.5.5 1.3.5c.4 0 .7-.2.7-.5 0-.8-2.3-.6-2.3-2.1 0-.8.7-1.2 1.6-1.2 1 0 1.4.5 1.4.5l-.3.6s-.4-.4-1.1-.4c-.4 0-.7.2-.7.5 0 .8 2.3.6 2.3 2.1 0 .7-.6 1.3-1.6 1.3-1.1 0-1.7-.6-1.7-.6l.4-.7zM158.5 64.8h.9v.9h-.9v-.9zM163.9 61.2c1.1 0 1.6.6 1.6.6l-.4.6s-.5-.5-1.2-.5c-.9 0-1.5.7-1.5 1.6 0 .9.6 1.6 1.6 1.6.8 0 1.4-.6 1.4-.6l.3.6s-.6.7-1.7.7c-1.4 0-2.3-1-2.3-2.3-.1-1.3.9-2.3 2.2-2.3zM169.9 61.2c1.3 0 2.4 1 2.4 2.3 0 1.3-1.1 2.3-2.4 2.3-1.3 0-2.4-1-2.4-2.3 0-1.3 1.1-2.3 2.4-2.3zm0 3.9c.8 0 1.5-.7 1.5-1.6 0-.9-.7-1.6-1.5-1.6s-1.5.6-1.5 1.6c0 .9.7 1.6 1.5 1.6zM174.5 61.3h.8V62.2c.2-.5.8-1 1.5-1s1.2.3 1.3 1c.2-.5.8-1 1.6-1 1 0 1.4.6 1.4 1.7v2.8h-.8v-2.6c0-.6-.1-1.1-.8-1.1-.6 0-1.1.5-1.2 1.1 0 .2-.1.4-.1.6v2h-.8v-2.6c0-.6-.1-1.1-.8-1.1-.6 0-1.1.5-1.3 1.2 0 .2-.1.4-.1.6v2h-.8v-4.5z"/><g><path class="st2" d="M52.6 33.8h10.8V17.7l-10.6 6.8z"/><path class="st3" d="M63.4 17.7v12l-10.6-5.2V11.6L41.6 5.1v69.8l30.2-17.5V22.6zM30.5 33.8H19.7V17.7l10.7 6.8z"/><path class="st2" d="M19.7 17.7v12l10.7-5.2V11.6l11.2-6.5v69.8L11.4 57.4V22.6z"/></g></svg>